<svg width="49" height="40" viewBox="0 0 49 40" fill="none" xmlns="http://www.w3.org/2000/svg">
<path d="M43.8785 9.95466C45.7524 8.54925 47.4389 6.86276 48.7506 4.8952C47.0641 5.64475 45.0965 6.20691 43.129 6.3943C45.1902 5.17628 46.6893 3.3024 47.4389 0.960062C45.565 2.08439 43.41 2.92763 41.2551 3.3961C39.3812 1.42853 36.8515 0.304207 34.0407 0.304207C28.6064 0.304207 24.2028 4.70781 24.2028 10.142C24.2028 10.8916 24.2965 11.6411 24.4839 12.3907C16.3326 11.9222 9.02446 7.98709 4.15239 2.08439C3.30914 3.48979 2.84068 5.17628 2.84068 7.05015C2.84068 10.4231 4.52716 13.4213 7.24428 15.2015C5.65149 15.1078 4.05869 14.733 2.74698 13.9835V14.0772C2.74698 18.8556 6.11995 22.7907 10.6173 23.7276C9.8677 23.915 8.93077 24.1024 8.08752 24.1024C7.43167 24.1024 6.8695 24.0087 6.21365 23.915C7.43167 27.8502 11.0857 30.661 15.3956 30.7547C12.0227 33.3781 7.80644 34.9709 3.21545 34.9709C2.37221 34.9709 1.62266 34.8772 0.873108 34.7835C5.18302 37.5943 10.3362 39.1871 15.9578 39.1871C34.0407 39.1871 43.8785 24.2898 43.8785 11.2664C43.8785 10.7979 43.8785 10.4231 43.8785 9.95466Z" fill="white"/>
</svg>
