<svg width="198" height="187" viewBox="0 0 198 187" fill="none" xmlns="http://www.w3.org/2000/svg">
<path d="M171.46 56.0398L180.473 89.6663C183.689 101.68 179.91 114.701 169.806 126.799C168.721 128.099 167.556 129.396 166.325 130.665C164.866 132.174 163.338 133.637 161.721 135.058C155.097 140.821 147.748 145.694 139.86 149.55C136.897 151.023 133.828 152.388 130.655 153.646C126.02 155.481 121.282 157.046 116.466 158.333C111.651 159.631 106.764 160.643 101.829 161.365C98.4606 161.862 95.1211 162.215 91.8111 162.425C83.0518 163.029 74.2512 162.483 65.6339 160.8C63.5284 160.382 61.4626 159.883 59.4557 159.299C57.7597 158.845 56.0954 158.272 54.4974 157.689C39.7194 152.293 29.9319 142.927 26.7228 130.887L17.7278 97.1931C17.5578 96.5623 17.5139 95.9041 17.5986 95.2563C17.6832 94.6084 17.8948 93.9837 18.2212 93.4177C18.5476 92.8518 18.9824 92.3557 19.5008 91.958C20.0191 91.5603 20.6107 91.2687 21.2419 91.0999L165.383 52.4663C166.017 52.2997 166.677 52.2601 167.326 52.3497C167.975 52.4394 168.6 52.6565 169.165 52.9886C169.73 53.3208 170.224 53.7613 170.617 54.285C171.011 54.8086 171.298 55.405 171.46 56.0398Z" fill="url(#paint0_linear)"/>
<path d="M171.46 56.0402C174.678 68.0456 170.907 81.0684 160.792 93.1731L169.803 126.808C168.719 128.108 167.553 129.405 166.322 130.674C164.864 132.183 163.336 133.646 161.719 135.067L152.708 101.432C146.084 107.195 138.735 112.068 130.847 115.924L139.858 149.559C136.894 151.031 133.826 152.397 130.653 153.655L121.66 119.952C117.024 121.79 112.286 123.357 107.469 124.648C102.653 125.942 97.7656 126.954 92.832 127.679L101.845 161.306C98.4764 161.803 95.1369 162.156 91.8269 162.366L82.8182 128.722C74.0602 129.312 65.2625 128.758 56.6479 127.073L65.6611 160.699C63.5556 160.28 61.4897 159.781 59.4828 159.198C57.7868 158.744 56.1226 158.17 54.5246 157.588L45.5023 123.995C30.7266 118.591 20.9368 109.233 17.7277 97.1935C14.1526 83.8746 19.1845 69.3354 31.8718 56.2113C43.9154 43.7599 61.6178 33.9337 81.7308 28.5435C101.844 23.1533 122.085 22.8144 138.733 27.5751C156.283 32.5959 167.886 42.6851 171.46 56.0402Z" fill="url(#paint1_linear)"/>
<path d="M132.187 70.5567C134.46 71.1656 135.618 72.8121 134.441 74.7962C129.11 83.7381 117.116 91.9674 101.99 96.0125C90.5296 99.095 79.3944 99.2016 70.6853 96.868C68.0577 96.1963 65.5203 95.2113 63.1278 93.9341C59.8867 92.1567 62.2089 88.1709 67.1571 86.8337L70.7188 85.8884C72.2958 85.4282 73.9642 85.3778 75.5661 85.7421C75.877 85.8224 76.179 85.9338 76.4677 86.0746C77.6493 86.6175 78.8751 87.0585 80.1318 87.3927C85.5082 88.8333 92.3833 88.785 99.4619 86.8916C108.276 84.5269 115.333 79.8647 118.886 74.7092C120.116 73.1717 121.833 72.0994 123.755 71.6691L127.318 70.7154C128.901 70.245 130.578 70.1903 132.187 70.5567Z" fill="#F2F2F2"/>
<path d="M91.6151 36.4635C93.2433 36.8998 94.4208 37.797 94.749 39.0483C95.4308 41.5578 92.5171 44.4944 88.181 45.6503C86.2736 46.2026 84.2563 46.2566 82.322 45.8072C80.6854 45.3687 79.4994 44.4692 79.1413 43.2281C78.4911 40.7362 81.4047 37.7995 85.7092 36.6261C87.6314 36.0669 89.6651 36.0109 91.6151 36.4635Z" fill="#F2F2F2"/>
<path d="M120.137 47.1779C122.665 47.8479 125.107 48.8072 127.415 50.0369C130.758 51.8415 128.58 55.8659 123.521 57.1736L119.957 58.1273C118.363 58.5948 116.675 58.6463 115.055 58.277C114.771 58.1999 114.494 58.1013 114.225 57.9819C113.065 57.4402 111.858 57.0044 110.62 56.6797C105.269 55.2459 98.4258 55.3118 91.3494 57.1967C82.5804 59.5643 75.5308 64.1648 72.0054 69.2825C70.7655 70.7903 69.064 71.8483 67.1632 72.2932L63.5654 73.2378C61.9945 73.6934 60.3333 73.7395 58.7396 73.3718C56.4246 72.7514 55.2735 71.0433 56.5241 68.988C61.9586 60.1373 73.8443 52.0063 88.8399 48.008C100.289 44.9317 111.42 44.8421 120.137 47.1779Z" fill="#F2F2F2"/>
<path d="M143.172 55.2406C143.719 55.3396 144.231 55.5819 144.655 55.9429C145.079 56.3039 145.399 56.7707 145.584 57.2957L146.224 59.6213C146.724 61.4548 144.843 63.5868 142.054 64.33L51.2609 88.6643C50.0699 89.0026 48.811 89.0226 47.6099 88.7221C47.0646 88.625 46.5548 88.3856 46.1318 88.0281C45.7089 87.6705 45.388 87.2076 45.2015 86.6862L44.5511 84.3306C44.0517 82.4971 45.908 80.386 48.7574 79.6225L139.548 55.2967C140.731 54.965 141.979 54.9457 143.172 55.2406Z" fill="#F2F2F2"/>
<path d="M108.489 98.1452C110.126 98.5838 111.314 99.4748 111.672 100.716C112.32 103.216 109.381 106.182 105.104 107.318C103.185 107.878 101.154 107.934 99.207 107.483C97.5703 107.044 96.3929 106.147 96.0647 104.896C95.346 102.422 98.2943 99.4581 102.633 98.2938C104.54 97.7438 106.557 97.6927 108.489 98.1452Z" fill="#F2F2F2"/>
<defs>
<linearGradient id="paint0_linear" x1="28.0235" y1="135.627" x2="181.776" y2="94.4294" gradientUnits="userSpaceOnUse">
<stop offset="0.04" stop-color="#06E2FF"/>
<stop offset="0.52" stop-color="#D9A4FC"/>
</linearGradient>
<linearGradient id="paint1_linear" x1="42.5539" y1="138.942" x2="166.474" y2="39.052" gradientUnits="userSpaceOnUse">
<stop stop-color="#06E2FF"/>
<stop offset="1" stop-color="#D9A4FC"/>
</linearGradient>
</defs>
</svg>
