<svg xmlns="http://www.w3.org/2000/svg" viewBox="0 0 58.008 64"><defs><linearGradient id="a" x1=".5" x2=".5" y2="1" gradientUnits="objectBoundingBox"><stop offset="0" stop-color="#8f3769"/><stop offset="1" stop-color="#61245f"/></linearGradient></defs><path d="M38.449 28.846c-1.676 0-3.029 1.708-3.029 3.8s1.354 3.8 3.029 3.8 3.029-1.708 3.029-3.8-1.353-3.8-3.029-3.8Zm-12.891 0c-1.676 0-3.029 1.708-3.029 3.8s1.354 3.8 3.029 3.8 3.029-1.708 3.029-3.8-1.353-3.8-3.028-3.8Zm12.891 0c-1.676 0-3.029 1.708-3.029 3.8s1.354 3.8 3.029 3.8 3.029-1.708 3.029-3.8-1.353-3.8-3.029-3.8Zm-12.891 0c-1.676 0-3.029 1.708-3.029 3.8s1.354 3.8 3.029 3.8 3.029-1.708 3.029-3.8-1.353-3.8-3.028-3.8ZM51.34 3H12.668A9.655 9.655 0 0 0 3 12.668V51.34a9.655 9.655 0 0 0 9.668 9.668h35.449l-1.225-4.544 9.7 9.765a2.579 2.579 0 0 0 4.415-1.8V12.668A9.655 9.655 0 0 0 51.34 3Zm-1.386 37.834a16.761 16.761 0 0 1-10.184 4.06l-1.386-1.869a13.1 13.1 0 0 0 3.9-2.095l-.29-.773c-2.32 1.063-5.317 1.708-9.99 1.708s-7.67-.645-9.99-1.708l-.29.773a13.1 13.1 0 0 0 3.9 2.095l-1.386 1.869a16.761 16.761 0 0 1-10.184-4.061 3.19 3.19 0 0 1-.935-2.578c.806-9.313 3.674-14.953 4.705-16.693a3.173 3.173 0 0 1 .935-1.031 18.762 18.762 0 0 1 8.057-3l.967 1.966A24.123 24.123 0 0 1 32 19.049a25.134 25.134 0 0 1 4.222.451l.967-1.966a18.163 18.163 0 0 1 8.057 3 3.173 3.173 0 0 1 .935 1.031c1.031 1.772 3.9 7.38 4.705 16.693a3.19 3.19 0 0 1-.932 2.576Zm-11.5-11.988c-1.676 0-3.029 1.708-3.029 3.8s1.354 3.8 3.029 3.8 3.029-1.708 3.029-3.8-1.358-3.8-3.034-3.8Zm-12.891 0c-1.676 0-3.029 1.708-3.029 3.8s1.354 3.8 3.029 3.8 3.029-1.708 3.029-3.8-1.358-3.8-3.033-3.8Z" transform="translate(-3 -3)" fill="url(#a)"/></svg>