<svg xmlns="http://www.w3.org/2000/svg" viewBox="0 0 64 52"><defs><linearGradient id="a" x1=".5" x2=".5" y2="1" gradientUnits="objectBoundingBox"><stop offset="0" stop-color="#8f3769"/><stop offset="1" stop-color="#61245f"/></linearGradient></defs><path d="M58.36 13.2a27.854 27.854 0 0 0 6.513-6.763 24.649 24.649 0 0 1-7.515 2 12.849 12.849 0 0 0 5.762-7.256 27.776 27.776 0 0 1-8.266 3.256 13.2 13.2 0 0 0-22.795 9.018 12.352 12.352 0 0 0 .376 3.006A38.155 38.155 0 0 1 5.257 2.684 12.792 12.792 0 0 0 3.5 9.322a12.939 12.939 0 0 0 5.886 10.9 13.866 13.866 0 0 1-6.008-1.632v.125a13.167 13.167 0 0 0 10.522 12.9 14.681 14.681 0 0 1-3.382.5 16.973 16.973 0 0 1-2.5-.251 13.087 13.087 0 0 0 12.274 9.143A26.44 26.44 0 0 1 4 46.645a24.4 24.4 0 0 1-3.131-.251 36.642 36.642 0 0 0 20.164 5.886c24.172 0 37.323-19.914 37.323-37.323Z" transform="translate(-.873 -.304)" fill="url(#a)"/></svg>