<svg width="48" height="46" viewBox="0 0 48 46" fill="none" xmlns="http://www.w3.org/2000/svg">
<path d="M16.3326 37.0033C16.3326 36.8159 16.1452 36.6285 15.8641 36.6285C15.583 36.6285 15.3956 36.8159 15.3956 37.0033C15.3956 37.1907 15.583 37.3781 15.8641 37.2844C16.1452 37.2844 16.3326 37.1907 16.3326 37.0033ZM13.4281 36.5348C13.4281 36.7222 13.6154 37.0033 13.8965 37.0033C14.0839 37.097 14.365 37.0033 14.4587 36.8159C14.4587 36.6285 14.365 36.4411 14.0839 36.3474C13.8028 36.2538 13.5218 36.3474 13.4281 36.5348ZM17.6443 36.4411C17.3632 36.4411 17.1758 36.6285 17.1758 36.9096C17.1758 37.097 17.4569 37.1907 17.738 37.097C18.0191 37.0033 18.2064 36.9096 18.1127 36.7222C18.1127 36.5348 17.8317 36.3474 17.6443 36.4411ZM23.7344 0.462765C10.8046 0.462765 0.873108 10.3943 0.873108 23.324C0.873108 33.724 7.33797 42.6249 16.7073 45.8105C17.9254 45.9979 18.3001 45.2483 18.3001 44.6862C18.3001 44.0303 18.3001 40.8447 18.3001 38.8772C18.3001 38.8772 11.7416 40.2826 10.3362 36.0664C10.3362 36.0664 9.30554 33.3493 7.80644 32.6934C7.80644 32.6934 5.65149 31.1943 7.90013 31.1943C7.90013 31.1943 10.2425 31.3817 11.5542 33.6303C13.6154 37.2844 16.9884 36.2538 18.3938 35.5979C18.5812 34.0988 19.1434 33.0682 19.8929 32.4123C14.6461 31.8502 9.30554 31.1006 9.30554 22.106C9.30554 19.4826 10.0551 18.2646 11.5542 16.5781C11.2731 15.9222 10.5236 13.4862 11.8353 10.2069C13.7091 9.64475 18.3001 12.7366 18.3001 12.7366C20.174 12.1745 22.1416 11.9871 24.1091 11.9871C26.1704 11.9871 28.138 12.1745 30.0118 12.7366C30.0118 12.7366 34.5091 9.55105 36.4767 10.2069C37.7884 13.4862 36.9452 15.9222 36.7578 16.5781C38.2569 18.2646 39.1938 19.4826 39.1938 22.106C39.1938 31.1006 33.6659 31.8502 28.4191 32.4123C29.2623 33.1619 30.0118 34.5673 30.0118 36.8159C30.0118 39.9078 29.9182 43.8429 29.9182 44.5925C29.9182 45.2483 30.3866 45.9979 31.6046 45.7168C40.974 42.6249 47.3452 33.724 47.3452 23.324C47.3452 10.3943 36.7578 0.462765 23.7344 0.462765ZM9.9614 32.7871C9.77401 32.8808 9.8677 33.1619 9.9614 33.3493C10.1488 33.4429 10.3362 33.5366 10.5236 33.4429C10.6173 33.3493 10.6173 33.0682 10.4299 32.8808C10.2425 32.7871 10.0551 32.6934 9.9614 32.7871ZM8.93077 32.0375C8.83707 32.2249 8.93077 32.3186 9.11815 32.4123C9.30554 32.506 9.49293 32.506 9.58662 32.3186C9.58662 32.2249 9.49293 32.1312 9.30554 32.0375C9.11815 31.9438 9.02446 31.9438 8.93077 32.0375ZM11.929 35.4105C11.8353 35.5042 11.8353 35.7853 12.1164 35.9727C12.3037 36.1601 12.5848 36.2538 12.6785 36.0664C12.7722 35.9727 12.7722 35.6916 12.5848 35.5042C12.3974 35.3168 12.1164 35.2231 11.929 35.4105ZM10.8983 34.0051C10.7109 34.0988 10.7109 34.3799 10.8983 34.5673C11.0857 34.7547 11.2731 34.8483 11.4605 34.7547C11.5542 34.661 11.5542 34.3799 11.4605 34.1925C11.2731 34.0051 11.0857 33.9114 10.8983 34.0051Z" fill="white"/>
</svg>
