<svg width="199" height="184" viewBox="0 0 199 184" fill="none" xmlns="http://www.w3.org/2000/svg">
<path d="M27.0621 108.707C39.1347 149.851 81.4136 175.7 121.495 166.443C161.576 157.187 184.281 116.329 172.208 75.1856C160.136 34.042 117.857 8.1925 77.7757 17.4492C37.6947 26.7059 14.9895 67.5634 27.0621 108.707Z" fill="url(#paint0_linear)"/>
<g style="mix-blend-mode:color-dodge">
<path style="mix-blend-mode:color-dodge" d="M119.427 108.244C117.839 114.595 111.821 118.835 105.271 118.835H104.985V125.186C104.981 125.75 104.755 126.29 104.355 126.689C103.955 127.087 103.414 127.311 102.85 127.314H98.5548C97.9912 127.311 97.4512 127.087 97.0527 126.688C96.6541 126.29 96.4293 125.75 96.4272 125.186V118.835H96.054C91.9048 118.86 87.8664 117.496 84.5821 114.96C84.3474 114.774 84.1545 114.54 84.0159 114.274C83.8773 114.008 83.796 113.716 83.7773 113.417C83.7586 113.117 83.8029 112.817 83.9073 112.536C84.0118 112.255 84.174 111.999 84.3836 111.785L87.4243 108.736C87.7796 108.382 88.249 108.165 88.749 108.124C89.2491 108.084 89.7474 108.222 90.1553 108.514C91.8836 109.727 93.9424 110.381 96.054 110.387H105.875C106.662 110.387 107.441 110.215 108.156 109.885C108.871 109.555 109.506 109.074 110.017 108.475C110.529 107.876 110.905 107.173 111.119 106.415C111.333 105.657 111.38 104.862 111.257 104.084C111.063 103.024 110.571 102.041 109.839 101.251C109.106 100.461 108.163 99.8957 107.121 99.6221L91.6558 95.1127C88.19 94.1066 85.2468 91.8007 83.4406 88.6764C81.6344 85.5521 81.1047 81.8509 81.9622 78.3454C83.55 71.9941 89.5678 67.7626 96.1096 67.7626H96.4431V61.4114C96.4451 60.8477 96.67 60.3077 97.0685 59.9092C97.4671 59.5106 98.0071 59.2858 98.5707 59.2837H102.826C103.39 59.2858 103.931 59.5103 104.331 59.9087C104.731 60.307 104.957 60.847 104.962 61.4114V67.7626H105.327C109.483 67.7523 113.523 69.1298 116.807 71.6766C117.041 71.8633 117.234 72.0971 117.373 72.363C117.512 72.629 117.593 72.921 117.612 73.2203C117.63 73.5196 117.586 73.8195 117.482 74.1006C117.377 74.3817 117.215 74.6377 117.005 74.8522L113.965 77.9008C113.609 78.2551 113.14 78.4718 112.64 78.5125C112.14 78.5532 111.641 78.4152 111.234 78.1231C109.503 76.9083 107.441 76.2543 105.327 76.2495H95.4983C94.7106 76.2502 93.9324 76.4215 93.2173 76.7516C92.5021 77.0817 91.867 77.5628 91.3555 78.1619C90.844 78.7609 90.4683 79.4635 90.2543 80.2216C90.0402 80.9796 89.9929 81.775 90.1156 82.5531C90.3083 83.6127 90.8002 84.5951 91.5331 85.3843C92.266 86.1735 93.2094 86.7365 94.2519 87.0069L109.749 91.4528C113.217 92.4622 116.16 94.7731 117.964 97.9024C119.768 101.032 120.292 104.737 119.427 108.244Z" fill="white"/>
</g>
<defs>
<linearGradient id="paint0_linear" x1="40.925" y1="59.6054" x2="163.322" y2="133.436" gradientUnits="userSpaceOnUse">
<stop stop-color="#3A0D67"/>
<stop offset="0.723958" stop-color="#AD53D8"/>
<stop offset="0.989583" stop-color="#FF50BD"/>
</linearGradient>
</defs>
</svg>
