<?xml version="1.0" encoding="UTF-8"?>
<svg width="151px" height="43px" viewBox="0 0 151 43" version="1.1" xmlns="http://www.w3.org/2000/svg" xmlns:xlink="http://www.w3.org/1999/xlink">
    <title>Group</title>
    <g id="Page-1" stroke="none" stroke-width="1" fill="none" fill-rule="evenodd">
        <g id="Group" fill="#F5F5F5" fill-rule="nonzero">
            <path d="M136.088,7.95425 L134.824,8.9652 C134.066,9.72341 133.308,9.97615 132.297,9.72341 C128.758,8.9652 124.715,10.2289 121.935,13.009 C119.154,15.7891 118.143,19.8329 118.649,23.3713 C118.902,24.3822 118.396,25.3932 117.891,25.8986 L116.627,27.1623 C115.111,28.6788 112.33,27.9205 111.572,25.6459 C110.056,19.3275 111.825,12.7563 116.627,7.70151 C121.429,2.89949 128.253,1.13032 134.571,2.64675 C136.846,3.40496 137.604,6.18508 136.088,7.95425 Z" id="Path"></path>
            <path d="M143.67,15.5364 C145.186,14.02 147.967,14.7782 148.472,16.8001 C149.988,23.1185 148.472,29.9425 143.417,34.7445 C138.615,39.5465 131.539,41.3157 125.473,39.7992 C123.198,39.2938 122.44,36.5136 124.209,34.9972 L125.473,33.7335 C126.231,32.9753 127.242,32.7226 128,32.9753 C131.791,33.7335 135.582,32.7226 138.363,29.6897 C141.143,26.9096 142.154,22.8658 141.648,19.3275 C141.395,18.3165 141.901,17.3056 142.406,16.8001 L143.67,15.5364 Z" id="Path"></path>
            <path d="M145.692,4.41594 L146.956,5.67963 C147.967,6.69059 147.967,8.20701 147.208,9.21797 L117.891,38.5356 C116.88,39.5465 115.363,39.2938 114.352,38.2828 L113.089,37.0191 C112.078,36.0082 112.078,34.4918 113.089,33.4808 L142.154,4.16321 C143.165,3.40499 144.681,3.40499 145.692,4.41594 Z" id="Path"></path>
            <path d="M115.363,6.69058 C114.1,7.95427 111.825,7.95427 110.309,6.69058 C109.045,5.42689 109.045,3.15224 110.309,1.63582 C111.572,0.372127 113.847,0.372127 115.363,1.63582 C116.88,3.15224 116.88,5.42689 115.363,6.69058 Z" id="Path"></path>
            <path d="M149.736,41.063 C148.472,42.3266 146.197,42.3266 144.681,41.063 C143.417,39.7993 143.417,37.5246 144.681,36.0082 C145.945,34.7445 148.219,34.7445 149.736,36.0082 C151.252,37.5246 151.252,39.7993 149.736,41.063 Z" id="Path"></path>
            <path d="M38.7837,22.8659 C38.7837,23.1186 38.7837,23.3713 38.7837,23.6241 C38.7837,23.8768 38.7837,24.1296 38.531,24.635 C38.0255,26.9097 37.2673,28.9316 36.2564,30.7007 C35.2454,32.7226 33.729,34.2391 32.2126,35.7555 C30.4434,37.2719 28.6742,38.2829 26.6523,39.0411 C24.6304,39.7993 22.3558,40.3048 20.0811,40.3048 C17.5538,40.3048 15.0264,39.7993 12.7517,38.7884 C10.4771,37.7774 8.45519,36.5137 6.68602,34.7445 C4.91685,32.9754 3.40043,30.9535 2.38947,28.6788 C1.37852,26.4042 0.873047,23.8768 0.873047,21.3494 C0.873047,18.8221 1.37852,16.2947 2.38947,14.02 C3.40043,11.7454 4.66412,9.72349 6.43328,7.95432 C8.20245,6.18516 10.2244,4.92147 12.499,3.91052 C14.7736,2.89956 17.301,2.39409 19.8284,2.39409 C21.8503,2.39409 23.6195,2.64683 25.3886,3.1523 C27.1578,3.65778 28.6742,4.41599 30.1907,5.42694 L30.9489,5.93242 C31.7071,6.4379 32.4653,7.19611 32.4653,8.20706 C32.718,9.21801 32.4653,10.229 31.9598,10.9872 C31.4543,11.7454 30.6961,12.5036 29.6852,12.7563 C28.6742,13.0091 27.6633,12.7563 26.9051,12.2509 L25.3886,11.2399 C24.6304,10.7344 23.6195,10.4817 22.8612,10.229 C21.8503,9.97623 20.8393,9.72349 19.8284,9.72349 C18.312,9.72349 16.7955,9.97623 15.2791,10.7344 C13.7627,11.2399 12.7517,12.2509 11.488,13.2618 C10.4771,14.2728 9.71888,15.5365 8.96066,17.0529 C8.45519,18.3166 8.20245,19.833 8.20245,21.3494 C8.20245,22.8659 8.45519,24.3823 9.2134,25.8987 C9.71888,27.4151 10.7298,28.4261 11.7408,29.6898 C12.7517,30.7007 14.0154,31.459 15.5318,32.2172 C17.0483,32.7226 18.312,33.2281 20.0811,33.2281 C21.3448,33.2281 22.6085,32.9754 23.6195,32.7226 C24.6304,32.4699 25.8941,31.7117 26.6523,31.2062 C27.6633,30.448 28.4215,29.6898 29.1797,28.9316 C29.9379,28.1734 30.4434,26.9097 30.9489,25.8987 L25.8941,25.8987 C24.8832,25.8987 24.1249,25.646 23.3667,24.8878 C22.6085,24.1296 22.3558,23.3713 22.3558,22.3604 C22.3558,21.3494 22.6085,20.5912 23.3667,19.833 C24.1249,19.0748 24.8832,18.8221 25.8941,18.8221 L34.9927,18.8221 C36.0036,18.8221 37.0146,19.3275 37.7728,20.0857 C38.531,20.844 38.7837,21.3494 38.7837,22.3604 L38.7837,22.8659 Z" id="Path"></path>
            <path d="M77.4526,2.39409 C78.4636,2.39409 79.2218,2.64683 79.98,3.40504 C80.7382,4.16325 80.991,4.92147 80.991,5.93242 L80.991,9.72349 C80.991,10.9872 80.7382,12.2509 80.4855,13.2618 C80.2328,14.5255 79.98,15.5365 79.4745,16.8002 C78.4636,19.0748 77.1999,21.0967 75.4307,22.8659 C74.4198,23.6241 73.6616,24.3823 72.6506,25.1405 C71.6397,25.8987 70.6287,26.4042 69.365,26.9097 C68.8595,27.1624 68.1013,27.4151 67.5959,27.6679 C67.0904,27.9206 66.3322,27.9206 65.574,28.1734 L65.574,36.7665 C65.574,37.7774 65.3212,38.5356 64.563,39.2938 C63.8048,40.052 63.0466,40.3048 62.0356,40.3048 C61.0247,40.3048 60.2665,40.052 59.5082,39.2938 C58.75,38.5356 58.4973,37.7774 58.4973,36.7665 L58.4973,28.1734 C57.7391,28.1734 57.2336,27.9206 56.4754,27.6679 C55.9699,27.4151 55.2117,27.1624 54.7062,26.9097 C53.4425,26.4042 52.4316,25.8987 51.4206,25.1405 C50.4097,24.3823 49.3987,23.6241 48.6405,22.8659 C46.8713,21.0967 45.6077,19.0748 44.5967,16.8002 C43.5857,14.5255 43.0803,12.2509 43.0803,9.72349 L43.0803,6.18516 C43.0803,5.17421 43.333,4.41599 44.0912,3.65778 C44.8494,2.89956 45.6077,2.64683 46.6186,2.64683 C47.6296,2.64683 48.3878,2.89956 49.146,3.65778 C49.9042,4.41599 50.1569,5.17421 50.1569,6.18516 L50.1569,9.72349 C50.1569,11.2399 50.4097,12.7563 51.1679,14.2728 C51.9261,15.7892 52.6843,16.8002 53.6953,18.0638 C54.7062,19.0748 55.9699,19.833 57.4863,20.5912 C59.0028,21.0967 60.5192,21.6022 62.0356,21.6022 C63.5521,21.6022 65.0685,21.3494 66.5849,20.5912 C68.1013,20.0857 69.365,19.0748 70.376,18.0638 C71.3869,17.0529 72.1451,15.7892 72.9034,14.2728 C73.4088,12.7563 73.9143,11.2399 73.9143,9.72349 L73.9143,6.18516 C73.9143,5.17421 74.167,4.41599 74.9253,3.65778 C75.4307,2.89956 76.4417,2.39409 77.4526,2.39409 Z" id="Path"></path>
            <path d="M104.748,3.65772 C105.507,4.41594 105.759,5.17415 105.759,6.1851 C105.759,7.19606 105.507,7.95427 104.748,8.71248 C103.99,9.4707 103.232,9.72344 102.221,9.72344 L101.968,9.72344 C100.452,9.72344 98.9354,10.2289 97.6717,10.7344 C96.408,11.2399 95.1443,12.2508 94.1334,13.2618 C93.1224,14.2727 92.3642,15.5364 91.8587,16.8001 C91.3532,18.0638 91.1005,19.5802 91.1005,21.0966 L91.1005,36.5137 C91.1005,37.5246 90.8478,38.2828 90.0895,39.041 C89.3313,39.7993 88.5731,40.052 87.5622,40.052 C86.5512,40.052 85.793,39.7993 85.0348,39.041 C84.2766,38.2828 84.0238,37.5246 84.0238,36.5137 L84.0238,21.3494 C84.0238,18.822 84.5293,16.2946 85.5403,14.02 C86.5512,11.7453 87.8149,9.72344 89.3313,7.95427 C91.1005,6.1851 92.8697,4.92141 95.1443,3.91046 C97.4189,2.89951 99.6936,2.39403 102.221,2.1413 L101.968,2.1413 C103.232,2.39403 103.99,2.89951 104.748,3.65772 Z" id="Path"></path>
        </g>
    </g>
</svg>