<svg width="1154" height="737" viewBox="0 0 1154 737" fill="none" xmlns="http://www.w3.org/2000/svg">
<g filter="url(#filter0_f)">
<path d="M600.292 376.189C751.15 356.689 867.324 314.044 859.773 280.94C852.223 247.836 723.807 236.808 572.949 256.308C422.092 275.809 305.918 318.453 313.469 351.557C321.019 384.661 449.434 395.689 600.292 376.189Z" fill="url(#paint0_radial)"/>
</g>
<g filter="url(#filter1_f)">
<path d="M612.15 425.016C846.753 308.742 1021.16 189.079 1001.69 157.742C982.224 126.404 776.261 195.259 541.658 311.532C307.056 427.806 132.653 547.469 152.119 578.807C171.585 610.144 377.548 541.29 612.15 425.016Z" fill="url(#paint1_radial)"/>
</g>
<path d="M509.954 339.163C457.287 503.834 449.289 647.967 492.091 661.094C534.893 674.221 612.286 551.37 664.954 386.699C717.621 222.029 725.618 77.895 682.816 64.7681C640.014 51.6413 562.621 174.492 509.954 339.163Z" stroke="#424242" stroke-miterlimit="10"/>
<path d="M527.629 344.584C478.683 497.619 465.789 629.893 498.83 640.026C531.87 650.159 598.332 534.314 647.278 381.279C696.224 228.243 709.118 95.9692 676.078 85.8362C643.038 75.7032 576.575 191.548 527.629 344.584Z" stroke="#424242" stroke-miterlimit="10"/>
<path d="M582.745 292.172C415.662 241.479 273.63 223.063 265.506 251.039C257.383 279.015 386.244 342.789 553.327 393.482C720.409 444.176 862.442 462.592 870.565 434.616C878.689 406.64 749.827 342.866 582.745 292.172Z" stroke="#616161" stroke-miterlimit="10"/>
<path d="M578.169 307.932C424.79 261.396 295.916 239.295 290.32 258.568C284.724 277.84 404.525 331.187 557.903 377.723C711.281 424.258 840.155 446.359 845.751 427.087C851.348 407.815 731.547 354.467 578.169 307.932Z" stroke="#616161" stroke-miterlimit="10"/>
<path d="M690.646 367.971L683.188 389.322C678.117 403.333 665.48 413.54 647.26 418.508C645.303 419.043 643.27 419.518 641.19 419.923C638.722 420.406 636.218 420.797 633.656 421.086C623.196 422.212 612.635 421.964 602.24 420.35C598.318 419.767 594.367 419.006 590.386 418.069C584.573 416.696 578.845 414.988 573.229 412.953C567.608 410.929 562.111 408.575 556.767 405.903C553.115 404.084 549.591 402.143 546.194 400.081C537.171 394.673 528.896 388.106 521.579 380.548C519.797 378.694 518.108 376.788 516.536 374.84C515.18 373.231 513.937 371.528 512.766 369.86C501.939 354.431 498.737 338.519 503.832 324.487L511.355 303.083C511.62 302.346 512.028 301.669 512.555 301.091C513.082 300.512 513.718 300.043 514.427 299.71C515.135 299.378 515.902 299.188 516.684 299.152C517.466 299.117 518.248 299.235 518.984 299.502L687.121 360.295C687.859 360.566 688.535 360.979 689.111 361.512C689.688 362.045 690.153 362.687 690.481 363.4C690.808 364.113 690.992 364.885 691.02 365.669C691.048 366.454 690.921 367.236 690.646 367.971Z" fill="url(#paint2_linear)"/>
<path d="M691.999 365.057C686.936 379.062 674.306 389.277 656.071 394.243L649.733 417.749C647.776 418.283 645.742 418.759 643.663 419.164C641.195 419.647 638.691 420.038 636.128 420.327L642.467 396.821C632.008 397.947 621.446 397.7 611.051 396.086L605.206 420.49C601.285 419.906 597.334 419.146 593.353 418.209L599.262 393.75C593.447 392.379 587.715 390.673 582.097 388.641C576.477 386.613 570.98 384.259 565.634 381.591L555.817 405.342C552.165 403.522 548.641 401.581 545.244 399.519L555.078 375.755C546.066 370.334 537.799 363.761 530.487 356.202L520.866 378.915C519.084 377.06 517.395 375.154 515.822 373.206C514.467 371.597 513.224 369.894 512.053 368.226L521.641 345.541C510.822 330.105 507.612 314.2 512.708 300.169C518.32 284.629 533.227 273.787 554.689 269.581C575.058 265.596 599.189 268.068 622.65 276.551C646.111 285.035 666.237 298.57 679.337 314.656C693.146 331.616 697.637 349.482 691.999 365.057Z" fill="url(#paint3_linear)"/>
<path d="M643.454 352.415C645.27 354.571 645.28 356.983 642.764 358.127C631.397 363.262 613.971 363.132 596.332 356.743C582.957 351.92 571.94 344.395 564.979 336.135C562.857 333.674 561.038 330.967 559.562 328.073C557.594 324.105 562.607 321.779 568.387 323.855L572.535 325.366C574.4 325.995 576.075 327.088 577.399 328.544C577.65 328.836 577.871 329.152 578.058 329.488C578.847 330.832 579.75 332.105 580.756 333.295C585.053 338.394 591.843 343.057 600.097 346.047C610.38 349.762 620.51 350.015 627.536 347.383C629.798 346.714 632.22 346.837 634.403 347.731L638.56 349.235C640.437 349.857 642.123 350.952 643.454 352.415Z" fill="#F2F2F2"/>
<path d="M626.938 291.108C628.24 292.652 628.782 294.341 628.247 295.796C627.198 298.729 622.322 299.619 617.268 297.784C615.015 297.02 612.996 295.691 611.403 293.924C610.094 292.371 609.545 290.675 610.044 289.21C611.112 286.315 615.988 285.425 621.022 287.221C623.295 287.989 625.332 289.327 626.938 291.108Z" fill="#F2F2F2"/>
<path d="M647.629 321.182C649.655 323.572 651.398 326.188 652.823 328.978C654.872 333.042 649.974 335.505 644.106 333.324L639.95 331.82C638.063 331.186 636.368 330.081 635.029 328.608C634.803 328.337 634.598 328.05 634.416 327.749C633.647 326.422 632.76 325.167 631.765 323.999C627.488 318.924 620.717 314.299 612.471 311.303C602.23 307.622 592.149 307.313 585.178 309.927C582.926 310.56 580.529 310.434 578.356 309.568L574.173 308.032C572.317 307.403 570.652 306.31 569.338 304.857C567.488 302.661 567.527 300.193 570.164 299.03C581.57 294.055 598.823 294.208 616.3 300.553C629.661 305.374 640.662 312.913 647.629 321.182Z" fill="#F2F2F2"/>
<path d="M664.744 344.888C665.214 345.361 665.551 345.95 665.72 346.595C665.889 347.24 665.885 347.918 665.707 348.561L664.742 351.285C663.977 353.43 660.668 354.237 657.417 353.056L551.509 314.762C550.107 314.279 548.856 313.436 547.881 312.317C547.412 311.848 547.075 311.264 546.904 310.623C546.734 309.981 546.735 309.307 546.909 308.666L547.884 305.905C548.65 303.761 551.921 302.958 555.244 304.16L661.144 342.461C662.534 342.945 663.774 343.782 664.744 344.888Z" fill="#F2F2F2"/>
<path d="M601.259 363.293C602.567 364.845 603.125 366.535 602.626 368.001C601.55 370.902 596.628 371.803 591.647 369.989C589.378 369.224 587.343 367.888 585.738 366.11C584.43 364.558 583.888 362.869 584.423 361.414C585.411 358.491 590.34 357.598 595.401 359.426C597.653 360.192 599.67 361.524 601.259 363.293Z" fill="#F2F2F2"/>
<g opacity="0.7">
<path d="M369.44 458.338C369.501 458.799 370.562 461.492 370.795 461.894L377.64 473.506C382.064 481.192 390.519 485.828 401.673 486.816C402.879 486.922 404.129 487.009 405.379 487.009C406.866 487.041 408.378 487.003 409.903 486.903C416.137 486.472 422.289 485.227 428.2 483.198C430.437 482.444 432.667 481.585 434.892 480.623C438.152 479.218 441.325 477.622 444.397 475.843C447.471 474.07 450.44 472.121 453.289 470.006C455.238 468.556 457.096 467.053 458.863 465.494C463.575 461.39 467.731 456.686 471.223 451.503C472.073 450.228 472.854 448.941 473.579 447.635C474.191 446.535 474.754 445.429 475.26 444.336C479.978 434.156 480.178 424.508 475.753 416.841L468.909 405.279C468.68 404.873 468.373 404.515 468.006 404.228" stroke="#9B8DA6"/>
<path d="M467.67 403.799L467.67 403.799C471.99 411.281 471.832 420.75 467.155 430.834L467.035 431.094L467.198 431.329L475.287 442.971C474.818 443.968 474.302 444.976 473.744 445.978L473.743 445.978C473.141 447.063 472.5 448.134 471.813 449.196L463.983 437.926L463.566 437.326L463.158 437.932C459.69 443.079 455.563 447.749 450.884 451.826L450.536 452.128L450.81 452.5L459.387 464.127C457.857 465.461 456.259 466.755 454.592 468.009L446.041 456.368L445.743 455.963L445.34 456.263C442.506 458.369 439.553 460.309 436.496 462.074L436.495 462.074C433.44 463.841 430.283 465.429 427.043 466.828L426.55 467.041L426.797 467.518L433.581 480.592C431.667 481.407 429.749 482.143 427.827 482.802L420.993 469.619L420.794 469.237L420.387 469.376C414.516 471.381 408.408 472.612 402.218 473.038L401.464 473.089L401.806 473.763L408.096 486.147C406.842 486.212 405.599 486.234 404.374 486.208V486.208H404.363C403.229 486.208 402.091 486.135 400.977 486.04L394.468 473.247L394.342 473L394.067 472.976C383.024 471.992 374.743 467.42 370.422 459.914L370.422 459.914C365.627 451.616 366.349 440.888 372.601 429.624C378.535 418.939 388.823 408.982 401.596 401.607C414.368 394.232 428.134 390.303 440.349 390.508C453.229 390.724 462.867 395.476 467.67 403.799Z" stroke="#9B8DA6"/>
</g>
<g opacity="0.2">
<path d="M274.254 517.721C274.041 517.91 273.038 519.369 272.913 519.625L269.364 527.07C266.977 531.945 267.517 537.821 270.833 543.818C271.191 544.466 271.575 545.13 272.002 545.764C272.495 546.529 273.031 547.284 273.604 548.023C275.955 551.039 278.692 553.734 281.744 556.039C282.892 556.916 284.09 557.754 285.34 558.553C287.167 559.726 289.063 560.791 291.017 561.74C292.968 562.693 294.972 563.533 297.02 564.255C298.423 564.748 299.821 565.176 301.216 565.54C304.911 566.526 308.719 567.025 312.544 567.024C313.481 567.019 314.402 566.975 315.312 566.896C316.08 566.83 316.833 566.737 317.561 566.62C324.34 565.531 329.304 562.332 331.68 557.464L335.205 550.036C335.333 549.781 335.409 549.503 335.429 549.218" stroke="#9B8DA6"/>
<path d="M335.357 548.815L335.357 548.816C333.075 553.495 328.282 556.627 321.608 557.697L321.325 557.743L321.221 558.01L318.123 565.992C317.495 566.087 316.849 566.163 316.193 566.219L316.192 566.219C315.535 566.276 314.872 566.315 314.202 566.334L317.136 558.776L317.401 558.095L316.67 558.095C312.889 558.096 309.124 557.603 305.472 556.627L305.026 556.508L304.871 556.943L301.966 565.104C300.89 564.813 299.81 564.483 298.728 564.114L301.643 555.977L301.812 555.504L301.338 555.337C299.307 554.622 297.319 553.791 295.384 552.847L295.384 552.847C293.449 551.904 291.57 550.849 289.758 549.688L289.306 549.399L289.049 549.87L284.837 557.601C283.883 556.977 282.96 556.33 282.067 555.66L286.337 547.83L286.544 547.452L286.2 547.192C283.188 544.909 280.486 542.243 278.163 539.261L277.698 538.665L277.331 539.325L273.345 546.491C272.952 545.959 272.579 545.419 272.228 544.875L272.228 544.875L272.222 544.866C271.859 544.327 271.526 543.763 271.21 543.199L275.421 535.614L275.556 535.372L275.422 535.13C272.164 529.229 271.67 523.531 273.964 518.844L273.965 518.843C276.494 513.652 282.109 510.372 289.92 509.694C297.33 509.053 305.867 510.856 313.953 514.801C322.04 518.746 328.713 524.365 332.766 530.598C337.038 537.17 337.898 543.612 335.357 548.815Z" stroke="#9B8DA6"/>
</g>
<defs>
<filter id="filter0_f" x="163.12" y="96.6709" width="847.001" height="439.156" filterUnits="userSpaceOnUse" color-interpolation-filters="sRGB">
<feFlood flood-opacity="0" result="BackgroundImageFix"/>
<feBlend mode="normal" in="SourceGraphic" in2="BackgroundImageFix" result="shape"/>
<feGaussianBlur stdDeviation="75" result="effect1_foregroundBlur"/>
</filter>
<filter id="filter1_f" x="0.635742" y="0.175049" width="1152.54" height="736.198" filterUnits="userSpaceOnUse" color-interpolation-filters="sRGB">
<feFlood flood-opacity="0" result="BackgroundImageFix"/>
<feBlend mode="normal" in="SourceGraphic" in2="BackgroundImageFix" result="shape"/>
<feGaussianBlur stdDeviation="75" result="effect1_foregroundBlur"/>
</filter>
<radialGradient id="paint0_radial" cx="0" cy="0" r="1" gradientUnits="userSpaceOnUse" gradientTransform="translate(586.621 316.249) rotate(77.1515) scale(61.4797 274.165)">
<stop stop-color="#0B62B3"/>
<stop offset="1" stop-color="#0B62B2" stop-opacity="0"/>
</radialGradient>
<radialGradient id="paint1_radial" cx="0" cy="0" r="1" gradientUnits="userSpaceOnUse" gradientTransform="translate(576.904 368.274) rotate(58.1529) scale(66.7975 471.926)">
<stop stop-color="#FF00F5"/>
<stop offset="1" stop-color="#FFA2F6" stop-opacity="0"/>
</radialGradient>
<linearGradient id="paint2_linear" x1="501.863" y1="330.037" x2="681.204" y2="394.896" gradientUnits="userSpaceOnUse">
<stop offset="0.04" stop-color="#06E2FF"/>
<stop offset="0.52" stop-color="#D9A4FC"/>
</linearGradient>
<linearGradient id="paint3_linear" x1="508.502" y1="358.211" x2="698.739" y2="344.944" gradientUnits="userSpaceOnUse">
<stop stop-color="#00BAD2"/>
<stop offset="1" stop-color="#D9A4FC"/>
</linearGradient>
</defs>
</svg>
